<svg width="300" height="100" viewBox="0 0 300 100" fill="none" xmlns="http://www.w3.org/2000/svg">
  <g filter="url(#filter0_d_1_2)">
    <path d="M150 20H165C172.732 20 179 26.268 179 34V44C179 51.732 172.732 58 165 58H150M150 20V58M150 20H135C127.268 20 121 26.268 121 34V44C121 51.732 127.268 58 135 58H150" stroke="#00E0FF" stroke-width="4" stroke-linecap="round" stroke-linejoin="round"/>
    <path d="M199 20V58M199 20H214C221.732 20 228 26.268 228 34V34C228 41.732 221.732 48 214 48H199" stroke="#00E0FF" stroke-width="4" stroke-linecap="round" stroke-linejoin="round"/>
    <path d="M248 20V58" stroke="#00E0FF" stroke-width="4" stroke-linecap="round" stroke-linejoin="round"/>
    <path d="M284 39C284 29.059 275.941 21 266 21H248V39H266M248 39H266M248 39V57H266C275.941 57 284 48.941 284 39C284 39 284 39 284 39H266" stroke="#00E0FF" stroke-width="4" stroke-linecap="round" stroke-linejoin="round"/>
    <path d="M304 20V58" stroke="#00E0FF" stroke-width="4" stroke-linecap="round" stroke-linejoin="round"/>
    <path d="M340 39C340 29.059 331.941 21 322 21H304V39H322M304 39H322M304 39V57H322C331.941 57 340 48.941 340 39C340 39 340 39 340 39H322" stroke="#00E0FF" stroke-width="4" stroke-linecap="round" stroke-linejoin="round"/>
    <path d="M360 58V30C360 24.477 364.477 20 370 20H380C385.523 20 390 24.477 390 30V48C390 53.523 385.523 58 380 58H360Z" stroke="#00E0FF" stroke-width="4" stroke-linecap="round" stroke-linejoin="round"/>
    <path d="M425 39C425 29.059 416.941 21 407 21H400C390.059 21 382 29.059 382 39C382 48.941 390.059 57 400 57H407C416.941 57 425 48.941 425 39Z" stroke="#00E0FF" stroke-width="4" stroke-linecap="round" stroke-linejoin="round"/>
    <path d="M61.9993 30C61.9993 43.2548 51.2541 54 37.9993 54C24.7445 54 13.9993 43.2548 13.9993 30C13.9993 16.7452 24.7445 6 37.9993 6C51.2541 6 61.9993 16.7452 61.9993 30Z" fill="#0094FF" fill-opacity="0.3"/>
    <path d="M61.9993 30C61.9993 43.2548 51.2541 54 37.9993 54C24.7445 54 13.9993 43.2548 13.9993 30C13.9993 16.7452 24.7445 6 37.9993 6C51.2541 6 61.9993 16.7452 61.9993 30Z" stroke="#00C2FF" stroke-width="2"/>
    <path d="M75.9993 9L96.9993 9C98.104 9 98.9993 9.89543 98.9993 11L98.9993 25C98.9993 26.1046 98.104 27 96.9993 27V27" stroke="#FF5277" stroke-width="3" stroke-linecap="round" stroke-linejoin="round"/>
    <path d="M75.9993 51L96.9993 51C98.104 51 98.9993 50.1046 98.9993 49L98.9993 35C98.9993 33.8954 98.104 33 96.9993 33V33" stroke="#BE4BDB" stroke-width="3" stroke-linecap="round" stroke-linejoin="round"/>
    <path d="M-0.000732422 51L-20.0007 51C-21.1053 51 -22.0007 50.1046 -22.0007 49L-22.0007 35C-22.0007 33.8954 -21.1053 33 -20.0007 33V33" stroke="#BE4BDB" stroke-width="3" stroke-linecap="round" stroke-linejoin="round"/>
    <path d="M-0.000732422 9L-20.0007 9C-21.1053 9 -22.0007 9.89543 -22.0007 11L-22.0007 25C-22.0007 26.1046 -21.1053 27 -20.0007 27V27" stroke="#FF5277" stroke-width="3" stroke-linecap="round" stroke-linejoin="round"/>
    <path d="M44.3281 28.6641L38.9993 33.9929L46.9993 41.9929" stroke="#0094FF" stroke-width="3" stroke-linecap="round" stroke-linejoin="round"/>
    <path d="M31.6708 28.6641L36.9995 33.9929L28.9995 41.9929" stroke="#0094FF" stroke-width="3" stroke-linecap="round" stroke-linejoin="round"/>
    <path d="M37.9998 17.9997V21.9997" stroke="#0094FF" stroke-width="3" stroke-linecap="round" stroke-linejoin="round"/>
  </g>
  <defs>
    <filter id="filter0_d_1_2" x="-30.5007" y="0.5" width="463" height="67" filterUnits="userSpaceOnUse" color-interpolation-filters="sRGB">
      <feFlood flood-opacity="0" result="BackgroundImageFix"/>
      <feColorMatrix in="SourceAlpha" type="matrix" values="0 0 0 0 0 0 0 0 0 0 0 0 0 0 0 0 0 0 127 0" result="hardAlpha"/>
      <feOffset dy="4"/>
      <feGaussianBlur stdDeviation="2"/>
      <feComposite in2="hardAlpha" operator="out"/>
      <feColorMatrix type="matrix" values="0 0 0 0 0 0 0 0 0 0 0 0 0 0 0 0 0 0 0.25 0"/>
      <feBlend mode="normal" in2="BackgroundImageFix" result="effect1_dropShadow_1_2"/>
      <feBlend mode="normal" in="SourceGraphic" in2="effect1_dropShadow_1_2" result="shape"/>
    </filter>
  </defs>
</svg>